<svg width="700" height="500" viewBox="0 0 700 500" fill="none" xmlns="http://www.w3.org/2000/svg">
<path d="M380 383.968C508.547 383.968 612.754 309.685 612.754 218.053C612.754 126.421 508.547 52.1382 380 52.1382C251.454 52.1382 147.246 126.421 147.246 218.053C147.246 309.685 251.454 383.968 380 383.968Z" fill="#F1EDE9"/>
<path d="M176.685 460.988C235.366 460.988 282.936 453.67 282.936 444.642C282.936 435.614 235.366 428.296 176.685 428.296C118.004 428.296 70.4341 435.614 70.4341 444.642C70.4341 453.67 118.004 460.988 176.685 460.988Z" fill="#F1EDE9"/>
<path d="M350.35 464.258C456.36 464.258 542.298 456.94 542.298 447.912C542.298 438.885 456.36 431.566 350.35 431.566C244.34 431.566 158.402 438.885 158.402 447.912C158.402 456.94 244.34 464.258 350.35 464.258Z" fill="#F1EDE9"/>
<path d="M298.132 44.938C278.311 45.478 261.911 61.354 260.771 81.15C260.1 92.79 264.611 103.382 272.203 110.855C273.325 111.959 273.846 113.533 273.584 115.085L270.733 131.956L288.275 121.735C289.274 121.153 290.451 120.939 291.585 121.168C295.873 122.033 300.416 122.192 305.099 121.483C322.428 118.858 335.948 104.512 337.546 87.058C339.674 63.796 321.094 44.313 298.132 44.938Z" fill="#835F40"/>
<path d="M297.451 96.7551L297.343 87.5502C298.686 87.2232 299.911 86.7971 301.019 86.2701C302.126 85.7441 303.098 85.1362 303.933 84.4452C304.768 83.7562 305.467 82.9841 306.031 82.1301C306.594 81.2772 307.019 80.3601 307.311 79.3801C307.601 78.4002 307.746 77.3652 307.746 76.2762C307.746 74.7152 307.364 73.2442 306.601 71.8642C305.839 70.4852 304.749 69.3682 303.333 68.5142C301.917 67.6612 300.228 67.2342 298.268 67.2342C296.162 67.2342 294.21 67.8152 292.413 68.9771C290.615 70.1402 289.244 72.1182 288.301 74.9142L287.321 74.2602C288.156 71.6102 289.554 69.5762 291.515 68.1602C293.476 66.7432 295.708 66.0352 298.214 66.0352C300.357 66.0352 302.236 66.4902 303.852 67.3972C305.467 68.3052 306.729 69.5312 307.637 71.0742C308.544 72.6172 308.999 74.3512 308.999 76.2762C308.999 77.7292 308.754 79.0902 308.264 80.3612C307.774 81.6322 307.083 82.7942 306.194 83.8472C305.304 84.9012 304.224 85.8172 302.953 86.5972C301.681 87.3792 300.248 87.9681 298.65 88.3681L298.542 96.7561L297.451 96.7551ZM296.798 103.618C296.798 103.146 296.925 102.756 297.179 102.447C297.433 102.139 297.779 101.984 298.214 101.984C298.722 101.984 299.085 102.13 299.304 102.42C299.522 102.711 299.63 103.11 299.63 103.618C299.63 104.054 299.512 104.435 299.276 104.762C299.039 105.089 298.685 105.252 298.213 105.252C297.74 105.252 297.387 105.106 297.15 104.816C296.913 104.526 296.798 104.127 296.798 103.618Z" fill="#FEFEFE"/>
<path d="M186.716 421.638L188.424 434.511C188.424 434.511 220.445 448.151 217.475 448.348C214.505 448.546 168.489 445.576 168.489 445.576L171.197 422.206L186.716 421.638Z" fill="#1A1713"/>
<path d="M177.796 211.483C177.796 211.483 175.244 236.043 173.331 237.319C171.417 238.595 168.866 239.233 168.866 239.233L173.012 211.165L177.796 211.483Z" stroke="#424242" stroke-miterlimit="10"/>
<path d="M127.231 194.601C127.231 194.601 114.252 223.908 118.02 240.236L189.966 229.262L188.465 198.816L127.231 194.601Z" fill="#1A1713"/>
<path d="M189.966 229.262C189.966 229.262 190.373 299.577 190.873 324.075C191.373 348.573 195.657 424.229 195.657 424.229C195.657 424.229 182.222 431.636 168.229 425.65C167.11 425.171 155.056 228.606 155.056 228.606L189.966 229.262Z" fill="#1A1713"/>
<path d="M119.212 231.533L88.853 424.872C88.853 424.872 102.111 437.293 118.858 425.988L149.728 268.065L164.719 258L166.952 229.193L119.212 231.533Z" fill="#1A1713"/>
<path d="M111.24 420.086L114.004 431.192C114.004 431.192 134.205 455.488 131.228 455.488C128.251 455.488 95.0791 440.448 95.0791 440.448L99.3321 417.31L111.24 420.086Z" fill="#1A1713"/>
<path d="M130.301 206.464C130.301 206.464 111.169 286.902 96.9473 428.919" stroke="#424242" stroke-miterlimit="10"/>
<path d="M143.42 215.116C143.42 215.116 136.721 231.863 125.277 232.142" stroke="#424242" stroke-miterlimit="10"/>
<path d="M171.716 426.81L161.928 260.38L171.49 250.352" stroke="#424242" stroke-miterlimit="10"/>
<path d="M171.588 110.399C176.566 109.38 180.199 108.649 180.199 108.649L211.247 125.606C211.3 125.635 211.353 125.664 211.406 125.693C221.58 131.307 226.077 140.832 225.809 154.181L227.317 173.518L210.492 159.865L196.269 187.292L187.236 219.671C139.032 237.2 120.308 205.728 120.308 205.728L136.279 171.155L142.73 139.225C145.795 122.84 155.26 113.742 171.588 110.399Z" fill="#9EC68A"/>
<path d="M432.232 165.021C432.232 165.021 427.368 185.369 399.841 210.196C399.841 210.196 397.214 206.48 403.09 192.16C408.968 177.841 431.079 159.944 432.232 165.021Z" fill="#7E9E6E"/>
<path d="M432.232 165.021C432.232 165.021 407.925 180.156 399.841 210.196C399.841 210.196 397.984 220.557 400.981 229.829" stroke="#1A1713" stroke-miterlimit="10" stroke-linecap="round"/>
<path d="M368.695 177.638C368.695 177.638 375.532 173.115 365.105 160.056C355.2 147.65 344.592 136.416 322.788 131.151C322.788 131.151 327.529 161.445 341.441 169.486C355.354 177.526 368.695 177.638 368.695 177.638Z" fill="#7E9E6E"/>
<path d="M313.766 196.169C313.766 196.169 336.451 202.662 376.304 192.142C376.304 192.142 374.144 187.953 356.795 185.479C339.447 183.005 309.439 192.526 313.766 196.169Z" fill="#7E9E6E"/>
<path d="M313.766 196.169C313.766 196.169 342.305 183.326 376.304 192.142C376.304 192.142 379.788 193.255 383.085 198.302" stroke="#1A1713" stroke-miterlimit="10" stroke-linecap="round"/>
<path d="M331.498 218.235C331.498 218.235 355.078 236.019 394.932 225.499C394.932 225.499 388.224 211.285 370.876 208.811C353.527 206.337 327.172 214.592 331.498 218.235Z" fill="#7E9E6E"/>
<path d="M331.498 218.235C331.498 218.235 358.827 207.555 394.932 225.499C394.932 225.499 399.171 227.721 402.467 232.768" stroke="#1A1713" stroke-miterlimit="10" stroke-linecap="round"/>
<path d="M419.889 144.668C419.889 144.668 427.21 144.263 408.428 159.529C390.693 173.943 392.814 174.201 392.814 174.201C392.814 174.201 400.653 151.433 419.889 144.668Z" fill="#1A1713"/>
<path d="M380.132 181.266C380.132 181.266 385.424 183.706 395.788 175.351C406.152 166.996 411.084 147.211 419.889 144.669C419.889 144.669 397.849 150.26 380.132 181.266Z" fill="#7E9E6E"/>
<path d="M411.312 252.328C401.698 229.382 387.989 203.135 368.696 177.638C368.696 177.638 364.006 170.604 347.331 152.081C330.656 133.558 322.79 131.151 322.79 131.151" stroke="#1A1713" stroke-miterlimit="10" stroke-linecap="round"/>
<path d="M417.271 145.571C417.271 145.571 396.149 153.22 380.132 181.265C376.252 188.059 380 193.873 383.084 198.301" stroke="#1A1713" stroke-miterlimit="10" stroke-linecap="round"/>
<path d="M631.119 409.856C631.119 409.856 610.634 416.004 576.451 393.852C576.451 393.852 578.696 387.901 594.157 386.943C609.617 385.986 635.224 405.07 631.119 409.856Z" fill="#7E9E6E"/>
<path d="M630.352 408.351C630.352 408.351 607.849 390.644 576.851 393.266C576.851 393.266 566.476 395.045 558.778 401.019" stroke="#1A1713" stroke-miterlimit="10" stroke-linecap="round"/>
<path d="M586.53 364.197C586.53 364.197 593.11 369.087 601.842 354.839C610.137 341.304 617.091 327.506 614.623 305.211C614.623 305.211 587.749 319.977 584.923 335.795C582.095 351.614 586.53 364.197 586.53 364.197Z" fill="#7E9E6E"/>
<path d="M639.368 389.648C639.368 389.648 643.669 395.587 620.67 388.048C598.953 380.93 599.884 382.852 599.884 382.852C599.884 382.852 623.273 377.128 639.368 389.648Z" fill="#1A1713"/>
<path d="M587.081 376.007C587.081 376.007 587.891 381.778 600.525 385.975C613.159 390.172 632.467 383.617 639.368 389.648C639.368 389.648 622.742 374.135 587.081 376.007Z" fill="#7E9E6E"/>
<path d="M530.798 429.686C549.103 412.837 569.119 391.016 586.53 364.197C586.53 364.197 591.548 357.393 603.292 335.41C615.036 313.427 614.622 305.211 614.622 305.211" stroke="#1A1713" stroke-miterlimit="10" stroke-linecap="round"/>
<path d="M637.192 387.934C637.192 387.934 619.332 374.307 587.081 376.007C579.268 376.419 575.729 380.223 569.872 387.528" stroke="#1A1713" stroke-miterlimit="10" stroke-linecap="round"/>
<path d="M418.092 205.978C424.36 205.978 430.43 203.778 435.243 199.762L448.598 188.618C453.404 184.608 459.112 182.459 464.961 182.459H531.239C537.253 182.459 542.129 187.335 542.129 193.349V205.977V433.293C542.129 443.671 533.716 452.085 523.337 452.085H192.945C184.873 452.085 178.329 445.541 178.329 437.469V220.594C178.329 212.522 184.873 205.978 192.945 205.978H418.092Z" fill="#835F40"/>
<path d="M178.33 438.694C178.33 438.694 200.815 396.517 203.064 391.673L264.515 266.481C266.06 263.154 269.394 261.026 273.062 261.026H501.42C509.722 261.026 521.729 256.674 528.103 251.355L537.318 243.666C542.124 239.656 547.833 237.507 553.681 237.507H616.755C623.469 237.507 628.029 244.327 625.464 250.532L549.193 435.001C544.918 445.341 534.832 452.085 523.643 452.085H182.454C180.23 452.085 178.176 450.18 178.177 447.956L178.33 438.694Z" fill="#B5967A"/>
<path d="M271.214 272.93L181.042 448.217" stroke="#FEFEFE" stroke-miterlimit="10" stroke-linejoin="round"/>
<path d="M308.37 303.138H386.045C388.163 303.138 390.134 302.072 391.271 300.312C393.895 296.251 390.933 290.936 386.045 290.936H308.37C306.252 290.936 304.281 292.002 303.144 293.761C300.519 297.823 303.482 303.138 308.37 303.138Z" stroke="#FEFEFE" stroke-miterlimit="10" stroke-linejoin="round"/>
<path d="M453.669 363.384L393.192 399.414" stroke="#FEFEFE" stroke-miterlimit="10" stroke-linecap="round" stroke-linejoin="round"/>
<path d="M404.224 361.646L442.225 399.63" stroke="#FEFEFE" stroke-miterlimit="10" stroke-linecap="round" stroke-linejoin="round"/>
<path d="M433.327 414.239C457.533 407.543 473.054 387.291 467.996 369.003C462.937 350.716 439.214 341.319 415.009 348.014C390.803 354.71 375.281 374.963 380.34 393.25C385.399 411.537 409.122 420.934 433.327 414.239Z" stroke="#FEFEFE" stroke-miterlimit="10" stroke-linecap="round" stroke-linejoin="round"/>
<path d="M193.761 192.146L204.976 204.74C204.976 204.74 194.455 217.154 183.769 209.801L182.055 207.342L193.761 192.146Z" fill="#9EC68A"/>
<path d="M167.701 117.001C167.701 117.001 183.067 121.027 170.977 165.448" stroke="#1A1713" stroke-miterlimit="10" stroke-linecap="round"/>
<path d="M194.702 193.467C186.406 184.146 176.266 172.434 170.276 164.359" stroke="#1A1713" stroke-miterlimit="10" stroke-linecap="round"/>
<path d="M183.769 209.801C175.807 201.638 165.048 190.019 160.352 185.713C153.034 179.002 145.439 168.204 147.915 154.332L147.618 143.21" stroke="#1A1713" stroke-miterlimit="10" stroke-linecap="round"/>
<path d="M231.563 203.84C221.758 198.542 217.241 191.983 213.46 187.121C204.44 175.524 201.244 174.088 203.887 160.59L204.032 146.464L223.601 167.642C231.074 177.555 248.302 195.326 254.667 202.328C254.667 202.328 247.195 212.286 231.563 203.84Z" fill="#9EC68A"/>
<path d="M191.654 200.263C192.556 200.016 193.491 199.94 194.421 200.038C197.777 200.393 206.77 201.337 207.785 201.35C209.035 201.366 210.051 199.5 212.733 206.265C215.415 213.029 214.934 213.659 214.918 214.543C214.903 215.427 212.957 228.416 210.867 226.465C208.777 224.514 209.058 223.378 209.058 223.378C209.058 223.378 207.931 228.653 207.338 228.45C206.745 228.246 204.548 228.24 204.9 224.515C204.9 224.515 203.702 228.136 202.467 227.235C201.232 226.335 201.509 222.421 201.509 222.421C201.509 222.421 200.187 225.359 198.677 223.398C197.168 221.436 198.292 216.893 198.292 216.893L197.027 213.517L194.29 212.334C194.29 212.334 185.077 214.744 183.492 208.349C182.275 203.435 188.641 201.087 191.654 200.263Z" fill="#DB9C7F"/>
<path d="M210.185 208.555L211.915 215.825L209.058 223.378" stroke="#1A1713" stroke-miterlimit="10" stroke-linecap="round"/>
<path d="M205.744 208.286L207.985 215.737L204.899 224.514" stroke="#1A1713" stroke-miterlimit="10" stroke-linecap="round"/>
<path d="M201.848 209.118L203.153 216.282L201.66 221.648" stroke="#1A1713" stroke-miterlimit="10" stroke-linecap="round"/>
<path d="M194.324 70.9951C191.055 74.0551 191.007 77.7761 191.007 77.7761C191.007 77.7761 189.883 76.3881 188.493 75.9421" stroke="#1A1713" stroke-miterlimit="10" stroke-linecap="round"/>
<path d="M241.021 198.182C244.13 197.431 247.408 197.939 250.254 199.397C253.999 201.316 259.849 204.288 260.612 204.516C261.745 204.854 262.484 204.241 262.634 211.122C262.693 213.841 262.685 215.718 262.443 216.519C262.2 217.319 256.704 225.531 254.899 224.375C254.85 224.343 254.816 224.317 254.771 224.287C254.313 224.902 253.7 225.656 253.098 226.17C252.647 226.555 250.137 226.503 251.421 223.206C251.421 223.206 249.681 227.017 248.328 226.509C246.565 225.847 246.851 224.152 247.494 222.718C246.675 223.824 245.661 224.725 244.94 223.768C243.525 221.89 246.73 215.211 246.73 215.211L247.104 211.166L244.658 208.977C244.658 208.977 235.915 209.191 236.128 202.964C236.225 200.107 238.541 198.781 241.021 198.182Z" fill="#DB9C7F"/>
<path d="M260.208 208.603L260.097 215.981L254.715 223.812" stroke="#1A1713" stroke-miterlimit="10" stroke-linecap="round"/>
<path d="M256.387 208.66L255.966 216.265L251.421 223.205" stroke="#1A1713" stroke-miterlimit="10" stroke-linecap="round"/>
<path d="M252.507 208.859L251.962 215.263L248.083 221.697" stroke="#1A1713" stroke-miterlimit="10" stroke-linecap="round"/>
<path d="M241.444 207.152C241.444 207.152 242.322 213.753 240.191 215.202C238.061 216.651 234.625 203 236.988 202.826C240.451 202.57 241.444 207.152 241.444 207.152Z" fill="#DB9C7F"/>
<path d="M244.348 206.198C244.348 206.198 242.229 206.538 241.624 209.026" stroke="#1A1713" stroke-miterlimit="10" stroke-linecap="round"/>
<path d="M203.227 174.253L213.527 160.829C222.943 148.372 216.668 135.203 216.668 135.203" stroke="#1A1713" stroke-miterlimit="10" stroke-linecap="round"/>
<path d="M227.318 173.518C227.318 173.518 221.25 165.105 219.871 168.829" stroke="#1A1713" stroke-miterlimit="10" stroke-linecap="round"/>
<path d="M229.662 103.504L227.915 103.136" stroke="#FEFEFE" stroke-miterlimit="10"/>
<path d="M193.14 101.877L180.199 108.649C180.199 108.649 179.859 124.007 194.392 135.68L200.918 129.339L207.495 135.918C207.495 135.918 209.997 133.953 210.74 125.036L209.567 114.21L193.14 101.877Z" fill="#FEFEFE"/>
<path d="M209.568 114.21L193.14 101.877L180.199 108.649" stroke="#1A1713" stroke-miterlimit="10" stroke-linecap="round" stroke-linejoin="round"/>
<path d="M189.383 104.206C189.383 104.206 193.384 127.6 199.308 129.258C205.231 130.915 208.926 119.217 208.926 119.217L197.456 87.2832L189.383 104.206Z" fill="#DB9C7F"/>
<path d="M211.126 122.03L211.197 124.938C211.251 124.968 211.079 125.836 208.195 126.167C195.524 125.789 194.521 111.531 193.49 100.188C193.49 100.188 212.296 119.766 211.126 122.03Z" fill="#1A1713"/>
<path d="M228.858 90.2261C228.858 90.2261 232.113 119.878 214.719 124.696C197.325 129.514 193.158 101.149 193.758 91.3391C194.358 81.5291 199.256 76.6842 211.447 76.2452C229.482 75.5952 228.858 90.2261 228.858 90.2261Z" fill="#DB9C7F"/>
<path d="M202.818 82.1891C202.818 82.1891 202.492 88.4211 198.356 89.6661L195.382 98.8311C195.382 98.8311 192.89 94.7581 190.152 93.3151C190.152 93.3151 187.128 81.2121 190.935 76.4031C194.742 71.5941 200.034 69.1561 212.837 70.2211C222.582 71.0311 228.283 77.9441 230.145 81.4611C230.749 82.6011 232.214 85.8051 228.789 88.9221C228.789 88.9221 228.835 86.5641 226.835 83.8051C226.835 83.8051 222.169 93.3441 202.818 82.1891Z" fill="#1A1713"/>
<path d="M186.142 100.402C187.215 104.315 190.293 106.901 193.017 106.179C195.741 105.457 197.081 101.7 196.008 97.7871C194.936 93.8741 191.857 91.2881 189.133 92.0101C186.408 92.7331 185.069 96.4901 186.142 100.402Z" fill="#DB9C7F"/>
<path d="M211.221 101.709C211.171 102.717 211.65 103.56 212.291 103.593C212.932 103.626 213.491 102.835 213.54 101.827C213.59 100.819 213.111 99.9763 212.47 99.9433C211.83 99.9113 211.27 100.702 211.221 101.709Z" fill="#1A1713"/>
<path d="M224.637 102.538C224.538 103.482 224.925 104.298 225.501 104.359C226.077 104.42 226.625 103.705 226.724 102.76C226.823 101.816 226.436 101 225.86 100.939C225.283 100.878 224.736 101.594 224.637 102.538Z" fill="#1A1713"/>
<path d="M207.391 93.7272C207.391 93.7272 211.998 94.7142 212.305 90.3452" stroke="#1A1713" stroke-miterlimit="10" stroke-linecap="round"/>
<path d="M223.002 93.3691C223.002 93.3691 224.176 97.4301 227.639 95.0791" stroke="#1A1713" stroke-miterlimit="10" stroke-linecap="round"/>
<path d="M210.416 117.954C210.416 117.954 208.897 111.765 204.183 115.313L210.416 117.954Z" fill="#1A1713"/>
<path d="M188.876 96.9962C188.876 96.9962 191.94 94.3602 193.614 99.1802C193.614 99.1802 191.824 101.08 192.954 102.571C192.954 102.571 191.189 102.971 190.319 101.415" stroke="#1A1713" stroke-miterlimit="10" stroke-linecap="round" stroke-linejoin="round"/>
<path d="M190.203 98.8399C190.203 98.8399 190.374 97.7689 191.563 96.5459" stroke="#1A1713" stroke-miterlimit="10" stroke-linecap="round" stroke-linejoin="round"/>
<path d="M221.977 102.385C221.977 105.249 223.737 107.571 225.909 107.571C228.081 107.571 229.841 105.249 229.841 102.385C229.841 99.5212 228.081 97.1992 225.909 97.1992C223.737 97.1992 221.977 99.5212 221.977 102.385Z" stroke="#FEFEFE" stroke-miterlimit="10"/>
<path d="M207.261 101.676C207.261 104.711 209.502 107.171 212.266 107.171C215.03 107.171 217.271 104.711 217.271 101.676C217.271 98.6412 215.03 96.1812 212.266 96.1812C209.502 96.1802 207.261 98.6412 207.261 101.676Z" stroke="#FEFEFE" stroke-miterlimit="10"/>
<path d="M222.154 103.886C222.154 103.886 220.937 98.721 216.989 103.52" stroke="#FEFEFE" stroke-miterlimit="10"/>
<path d="M207.366 99.5961L195.735 96.9761" stroke="#FEFEFE" stroke-miterlimit="10"/>
<path d="M222.641 106.171C223.217 106.902 223.337 107.773 223.046 108.715C222.759 109.645 221.811 110.211 220.851 110.191C220.406 110.182 219.979 110.062 219.558 109.93C219.374 109.873 219.01 109.676 218.812 109.763C217.853 110.187 216.736 109.35 217.056 108.696" stroke="#1A1713" stroke-miterlimit="10" stroke-linecap="round"/>
</svg>
