<svg width="32" height="32" viewBox="0 0 32 32" fill="none" xmlns="http://www.w3.org/2000/svg">
<path d="M4 29.3333H28" stroke="#FEFEFE" stroke-linecap="round" stroke-linejoin="round"/>
<path d="M7.46663 11.1733H5.33333C4.6 11.1733 4 11.7733 4 12.5067V24C4 24.7333 4.6 25.3333 5.33333 25.3333H7.46663C8.19997 25.3333 8.79997 24.7333 8.79997 24V12.5067C8.79997 11.7733 8.19997 11.1733 7.46663 11.1733Z" stroke="#FEFEFE" stroke-linecap="round" stroke-linejoin="round"/>
<path d="M17.0666 6.92017H14.9333C14.2 6.92017 13.6 7.52017 13.6 8.2535V24.0002C13.6 24.7335 14.2 25.3335 14.9333 25.3335H17.0666C17.7999 25.3335 18.3999 24.7335 18.3999 24.0002V8.2535C18.3999 7.52017 17.7999 6.92017 17.0666 6.92017Z" stroke="#FEFEFE" stroke-linecap="round" stroke-linejoin="round"/>
<path d="M26.6667 2.66675H24.5334C23.8001 2.66675 23.2001 3.26675 23.2001 4.00008V24.0001C23.2001 24.7334 23.8001 25.3334 24.5334 25.3334H26.6667C27.4 25.3334 28 24.7334 28 24.0001V4.00008C28 3.26675 27.4 2.66675 26.6667 2.66675Z" stroke="#FEFEFE" stroke-linecap="round" stroke-linejoin="round"/>
</svg>
