<svg width="385" height="298" viewBox="0 0 385 298" fill="none" xmlns="http://www.w3.org/2000/svg">
<rect width="12.5224" height="288" rx="6.26122" transform="matrix(-1 0 0 1 12.5225 10)" fill="#F2F2F2"/>
<rect width="13" height="77" rx="6.5" transform="matrix(-1 0 0 1 13 221)" fill="#835F40"/>
<rect width="12.5224" height="288" rx="6.26122" transform="matrix(-1 0 0 1 70.5225 10)" fill="#F2F2F2"/>
<rect width="12" height="247" rx="6" transform="matrix(-1 0 0 1 70.4775 51)" fill="#835F40"/>
<rect width="12.5224" height="288" rx="6.26122" transform="matrix(-1 0 0 1 128.09 10)" fill="#F2F2F2"/>
<rect width="13" height="52" rx="6.5" transform="matrix(-1 0 0 1 128.522 246)" fill="#835F40"/>
<path d="M173.522 10C173.522 4.47716 178 0 183.522 0H200.522C206.045 0 210.522 4.47715 210.522 10V288C210.522 293.523 206.045 298 200.522 298H183.522C178 298 173.522 293.523 173.522 288V10Z" fill="#C4C4C4"/>
<rect width="13" height="288" rx="6.5" transform="matrix(-1 0 0 1 198.522 6)" fill="#F2F2F2"/>
<rect width="13" height="110" rx="6.5" transform="matrix(-1 0 0 1 198.522 184)" fill="#835F40"/>
<rect width="12.5224" height="288" rx="6.26122" transform="matrix(-1 0 0 1 268.135 10)" fill="#F2F2F2"/>
<rect width="13" height="156" rx="6.5" transform="matrix(-1 0 0 1 268.522 142)" fill="#835F40"/>
<rect width="12.5224" height="288" rx="6.26122" transform="matrix(-1 0 0 1 326.135 10)" fill="#F2F2F2"/>
<rect width="13" height="216" rx="6.5" transform="matrix(-1 0 0 1 326.522 82)" fill="#835F40"/>
<rect width="12.5224" height="288" rx="6.26122" transform="matrix(-1 0 0 1 384.045 9.91309)" fill="#F2F2F2"/>
<rect width="12.5224" height="98.087" rx="6.26122" transform="matrix(-1 0 0 1 384.045 199.913)" fill="#835F40"/>
</svg>
