<svg width="543" height="56" viewBox="0 0 543 56" fill="none" xmlns="http://www.w3.org/2000/svg">
<rect x="10" y="22" width="459" height="12" rx="6" fill="#CDBEB2"/>
<rect x="272" y="22" width="197" height="12" rx="6" fill="#835F40"/>
<path fill-rule="evenodd" clip-rule="evenodd" d="M500.114 20.1739L497.548 35.9467H501.654L504.221 20.1739H500.114ZM494.093 20.1739L490.178 31.0223L489.715 28.6862L489.715 28.687L489.613 28.1634C489.139 27.1423 488.042 25.2015 485.97 23.5453C485.357 23.0557 484.74 22.6379 484.143 22.281L487.701 35.9467H491.979L498.512 20.1739H494.093ZM510.118 24.5527C510.118 22.7695 514.118 22.9986 515.875 23.9669L516.461 20.5794C516.461 20.5794 514.652 19.8916 512.767 19.8916C510.729 19.8916 505.89 20.7828 505.89 25.1131C505.89 29.1884 511.57 29.239 511.57 31.3786C511.57 33.5182 506.476 33.1358 504.795 31.7861L504.184 35.3269C504.184 35.3269 506.017 36.2181 508.819 36.2181C511.621 36.2181 515.849 34.7666 515.849 30.8183C515.849 26.7175 510.118 26.3355 510.118 24.5527ZM526.875 20.1739H523.573C522.049 20.1739 521.678 21.3494 521.678 21.3494L515.554 35.9467H519.834L520.69 33.6039H525.91L526.392 35.9467H530.162L526.875 20.1739ZM521.873 30.3672L524.031 24.4647L525.245 30.3672H521.873Z" fill="#005BAC"/>
<path fill-rule="evenodd" clip-rule="evenodd" d="M488.389 21.6589C488.389 21.6589 488.219 20.2354 486.405 20.2354H479.813L479.735 20.5029C479.735 20.5029 482.904 21.1489 485.944 23.569C488.849 25.8821 489.797 28.7654 489.797 28.7654L488.389 21.6589Z" fill="#F6AC1D"/>
</svg>
