<svg width="56" height="56" viewBox="0 0 56 56" fill="none" xmlns="http://www.w3.org/2000/svg">
<path d="M10 0.5H46C51.2467 0.5 55.5 4.7533 55.5 10V46C55.5 51.2467 51.2467 55.5 46 55.5H10C4.75329 55.5 0.5 51.2467 0.5 46V10C0.5 4.75329 4.7533 0.5 10 0.5Z" stroke="#C4C4C4"/>
<path d="M37.25 27.9999H24.895M20.534 27.9999H18.75M20.534 27.9999C20.534 27.4217 20.7637 26.8672 21.1725 26.4584C21.5813 26.0496 22.1358 25.8199 22.714 25.8199C23.2922 25.8199 23.8467 26.0496 24.2555 26.4584C24.6643 26.8672 24.894 27.4217 24.894 27.9999C24.894 28.5781 24.6643 29.1326 24.2555 29.5414C23.8467 29.9502 23.2922 30.1799 22.714 30.1799C22.1358 30.1799 21.5813 29.9502 21.1725 29.5414C20.7637 29.1326 20.534 28.5781 20.534 27.9999ZM37.25 34.6069H31.502M31.502 34.6069C31.502 35.1852 31.2718 35.7403 30.8628 36.1492C30.4539 36.5582 29.8993 36.7879 29.321 36.7879C28.7428 36.7879 28.1883 36.5572 27.7795 36.1484C27.3707 35.7396 27.141 35.1851 27.141 34.6069M31.502 34.6069C31.502 34.0286 31.2718 33.4745 30.8628 33.0655C30.4539 32.6566 29.8993 32.4269 29.321 32.4269C28.7428 32.4269 28.1883 32.6566 27.7795 33.0654C27.3707 33.4742 27.141 34.0287 27.141 34.6069M27.141 34.6069H18.75M37.25 21.3929H34.145M29.784 21.3929H18.75M29.784 21.3929C29.784 20.8147 30.0137 20.2602 30.4225 19.8514C30.8313 19.4426 31.3858 19.2129 31.964 19.2129C32.2503 19.2129 32.5338 19.2693 32.7983 19.3788C33.0627 19.4884 33.3031 19.649 33.5055 19.8514C33.7079 20.0538 33.8685 20.2942 33.9781 20.5586C34.0876 20.8231 34.144 21.1066 34.144 21.3929C34.144 21.6792 34.0876 21.9627 33.9781 22.2271C33.8685 22.4916 33.7079 22.732 33.5055 22.9344C33.3031 23.1368 33.0627 23.2974 32.7983 23.4069C32.5338 23.5165 32.2503 23.5729 31.964 23.5729C31.3858 23.5729 30.8313 23.3432 30.4225 22.9344C30.0137 22.5256 29.784 21.9711 29.784 21.3929Z" stroke="#292929" stroke-width="1.5" stroke-miterlimit="10" stroke-linecap="round"/>
</svg>
