<svg width="170" height="97" viewBox="0 0 170 97" fill="none" xmlns="http://www.w3.org/2000/svg">
<g filter="url(#filter0_d_860_23990)">
<mask id="path-1-inside-1_860_23990" fill="white">
<path d="M150 8C155.523 8 160 12.4772 160 18V59C160 64.5228 155.523 69 150 69H96.625L88.8301 82.5C86.9056 85.8333 82.0944 85.8333 80.1699 82.5L72.375 69H20C14.4772 69 10 64.5228 10 59V18C10 12.4772 14.4772 8 20 8H150Z"/>
</mask>
<path d="M150 8C155.523 8 160 12.4772 160 18V59C160 64.5228 155.523 69 150 69H96.625L88.8301 82.5C86.9056 85.8333 82.0944 85.8333 80.1699 82.5L72.375 69H20C14.4772 69 10 64.5228 10 59V18C10 12.4772 14.4772 8 20 8H150Z" fill="#FEFEFE"/>
<path d="M150 69V70V69ZM96.625 69V68H96.0477L95.759 68.5L96.625 69ZM88.8301 82.5L87.9641 82L87.9641 82L88.8301 82.5ZM80.1699 82.5L81.0359 82L81.0359 82L80.1699 82.5ZM72.375 69L73.241 68.5L72.9523 68H72.375V69ZM20 8V7V8ZM150 8V9C154.971 9 159 13.0294 159 18H160H161C161 11.9249 156.075 7 150 7V8ZM160 18H159V59H160H161V18H160ZM160 59H159C159 63.9706 154.971 68 150 68V69V70C156.075 70 161 65.0751 161 59H160ZM150 69V68H96.625V69V70H150V69ZM96.625 69L95.759 68.5L87.9641 82L88.8301 82.5L89.6961 83L97.491 69.5L96.625 69ZM88.8301 82.5L87.9641 82C86.4244 84.6666 82.5755 84.6666 81.0359 82L80.1699 82.5L79.3039 83C81.6133 87 87.3867 87 89.6961 83L88.8301 82.5ZM80.1699 82.5L81.0359 82L73.241 68.5L72.375 69L71.509 69.5L79.3039 83L80.1699 82.5ZM72.375 69V68H20V69V70H72.375V69ZM20 69V68C15.0294 68 11 63.9706 11 59H10H9C9 65.0751 13.9249 70 20 70V69ZM10 59H11V18H10H9V59H10ZM10 18H11C11 13.0294 15.0294 9 20 9V8V7C13.9249 7 9 11.9249 9 18H10ZM20 8V9H150V8V7H20V8Z" fill="url(#paint0_linear_860_23990)" mask="url(#path-1-inside-1_860_23990)"/>
</g>
<defs>
<filter id="filter0_d_860_23990" x="0" y="0" width="170" height="97" filterUnits="userSpaceOnUse" color-interpolation-filters="sRGB">
<feFlood flood-opacity="0" result="BackgroundImageFix"/>
<feColorMatrix in="SourceAlpha" type="matrix" values="0 0 0 0 0 0 0 0 0 0 0 0 0 0 0 0 0 0 127 0" result="hardAlpha"/>
<feOffset dy="2"/>
<feGaussianBlur stdDeviation="5"/>
<feComposite in2="hardAlpha" operator="out"/>
<feColorMatrix type="matrix" values="0 0 0 0 0 0 0 0 0 0 0 0 0 0 0 0 0 0 0.1 0"/>
<feBlend mode="normal" in2="BackgroundImageFix" result="effect1_dropShadow_860_23990"/>
<feBlend mode="normal" in="SourceGraphic" in2="effect1_dropShadow_860_23990" result="shape"/>
</filter>
<linearGradient id="paint0_linear_860_23990" x1="160" y1="46.5" x2="10" y2="46.5" gradientUnits="userSpaceOnUse">
<stop stop-color="#805B3C"/>
<stop offset="1" stop-color="#D3BAA4"/>
</linearGradient>
</defs>
</svg>
